<svg xmlns="http://www.w3.org/2000/svg" viewBox="0 0 512 512"><defs><style>.cls-1{fill:#009b3a;}.cls-2{fill:#fedf00;}.cls-3{fill:#002776;}.cls-4{fill:#fff;}</style></defs><g id="Layer_2" data-name="Layer 2"><g id="Layer_1-2" data-name="Layer 1"><path class="cls-1" d="M2.5,291.75C19.89,416.21,126.75,512,256,512c123.74,0,227-87.79,250.81-204.48L267,460.65Z"/><path class="cls-1" d="M506.81,204.48C483,87.79,379.74,0,256,0,126.75,0,19.89,95.79,2.5,220.25L267,51.35Z"/><path class="cls-2" d="M506.81,204.48,267,51.35,2.5,220.25a256.86,256.86,0,0,0,0,71.5L267,460.65,506.81,307.52a258.31,258.31,0,0,0,0-103ZM400.82,275A135.18,135.18,0,1,1,402.15,256,136.13,136.13,0,0,1,400.82,275Z"/><path class="cls-3" d="M136.16,222A135.18,135.18,0,0,0,396,296.34a307.77,307.77,0,0,0-206.25-78.95A311.54,311.54,0,0,0,136.16,222Zm18.76,82.56-2.84-2.07-2.84,2.07,1.09-3.34-2.84-2.06H151l1.08-3.34,1.08,3.34h3.51l-2.84,2.06Zm5.16-68.18-3.4-2.47-3.41,2.47,1.3-4-3.4-2.47h4.21l1.3-4,1.3,4h4.21l-3.41,2.47ZM172,293.23l-3.4-2.47-3.41,2.47,1.3-4-3.4-2.47h4.21l1.3-4,1.3,4h4.21l-3.41,2.47Zm11.46-10.73-1.62-1.18-1.62,1.18.62-1.9-1.63-1.18h2l.62-1.91.62,1.91h2l-1.62,1.18Zm84.64,80.79-1.13-.83-1.13.83.43-1.34-1.14-.82h1.41l.43-1.33.43,1.33h1.41l-1.14.82Zm68.62-2.85-2.27-1.65-2.27,1.65.87-2.67-2.27-1.65h2.8l.87-2.67.87,2.67h2.8l-2.27,1.65Zm42.83-56.91.87-2.67.87,2.67h2.8l-2.27,1.65.87,2.67-2.27-1.65-2.27,1.65.87-2.67-2.27-1.65ZM368.29,313.9h3.51L369,316l1.09,3.34-2.84-2.07-2.84,2.07,1.09-3.34-2.84-2.06h3.51l1.08-3.34Zm-7.9-12.25,1.3-4,1.3,4h4.21l-3.4,2.47,1.3,4-3.41-2.47-3.4,2.47,1.3-4-3.4-2.47Zm-2.54,23.1,1.09-3.34,1.08,3.34h3.51l-2.84,2.06,1.08,3.33-2.83-2.06-2.84,2.06,1.08-3.33-2.83-2.06Zm-10.63,7.1.87-2.67.86,2.67h2.81l-2.27,1.65.87,2.67-2.27-1.65-2.27,1.65.86-2.67-2.26-1.65Zm-14-2.58.86-2.66.87,2.66h2.81l-2.27,1.65.86,2.67-2.27-1.65-2.27,1.65.87-2.67-2.27-1.65Zm.33,13,1.08-3.34,1.09,3.34h3.51l-2.84,2.06,1.08,3.33-2.84-2.06-2.83,2.06,1.08-3.33-2.84-2.06Zm-15.41-8.35.87-2.67.86,2.67h2.81l-2.27,1.65.87,2.67L319,336.54l-2.27,1.65.86-2.67-2.27-1.65Zm-9.63,11.66H312l-2.83,2.06,1.08,3.33-2.84-2.06-2.84,2.06,1.09-3.33-2.84-2.06h3.51l1.08-3.34ZM302.91,248l.86-2.66.87,2.66h2.81l-2.27,1.65.86,2.67-2.27-1.65-2.27,1.65.87-2.67L300.1,248Zm-7,82.56.87-2.67.86,2.67h2.81l-2.27,1.65.87,2.67-2.27-1.65-2.27,1.65.86-2.67-2.27-1.65Zm-14.37-42.22,1.08-3.33,1.08,3.33h3.51l-2.84,2.06,1.09,3.34-2.84-2.06-2.84,2.06,1.09-3.34L278,288.34Zm-11.15,33-3.4-2.47-3.4,2.47,1.3-4-3.41-2.47h4.21l1.3-4,1.3,4h4.21l-3.41,2.47Zm-4.48-45.15,1.08-3.34,1.08,3.34h3.51l-2.84,2.06,1.09,3.33L267,279.54l-2.84,2.06,1.09-3.33-2.84-2.06Zm-6.34,22.15.62-1.91.62,1.91h2l-1.62,1.18.62,1.9-1.62-1.18-1.62,1.18.61-1.9-1.62-1.18Zm-7-9.72.86-2.67.87,2.67h2.81l-2.27,1.65.86,2.67-2.27-1.65L251.12,293l.87-2.67-2.27-1.65ZM214.43,260l1.09-3.33L216.6,260h3.51l-2.84,2.07,1.08,3.33-2.83-2.06-2.84,2.06,1.08-3.33L210.93,260Zm-3,65.9,1.3-4,1.3,4h4.21l-3.41,2.47,1.3,4-3.4-2.48-3.41,2.48,1.3-4-3.4-2.47Zm-15.78-25.44,1.08-3.34,1.08,3.34h3.51l-2.84,2.06,1.09,3.33-2.84-2.06-2.84,2.06,1.09-3.33-2.84-2.06Zm-3,11,.86,2.67h2.81l-2.27,1.65.87,2.66-2.27-1.64-2.27,1.64.86-2.66L189,314.2h2.81Z"/><path class="cls-3" d="M267,120.85a135.18,135.18,0,0,0-123.64,80.51,332.05,332.05,0,0,1,46.41-3.28A326.88,326.88,0,0,1,400.82,275,135.18,135.18,0,0,0,267,120.85Zm45.33,97.91-3.41-2.47-3.4,2.47,1.3-4-3.41-2.47h4.21l1.3-4,1.3,4h4.21l-3.4,2.47Z"/><path class="cls-4" d="M289.35,221.17a1.65,1.65,0,0,0-1.08-2.08l-4.73-1.49-1,3.15,4.74,1.5A1.65,1.65,0,0,0,289.35,221.17Z"/><path class="cls-4" d="M168.83,204.37l-5,.34.23,3.3,4.95-.34a1.65,1.65,0,1,0-.23-3.3Z"/><path class="cls-4" d="M273.25,216.37a1.64,1.64,0,0,0-1.19-2l-4.81-1.25-.82,3.21,4.8,1.24A1.65,1.65,0,0,0,273.25,216.37Z"/><path class="cls-4" d="M184.24,203.74l-3.5.06.14,8.09,3.5-.06a3.5,3.5,0,0,0,3.43-3.56l0-1.1A3.49,3.49,0,0,0,184.24,203.74Z"/><path class="cls-4" d="M390.74,279.1c1.39-1.75,1.33-4.11-.14-5.28s-3.79-.7-5.18,1.05-1.33,4.11.14,5.28S389.35,280.85,390.74,279.1Z"/><path class="cls-4" d="M150.46,206.09c-1.87.23-3.16,2.22-2.88,4.43s2,3.83,3.86,3.6,3.16-2.21,2.89-4.43S152.32,205.86,150.46,206.09Z"/><path class="cls-4" d="M335.86,240.5a1.65,1.65,0,0,0-.74-2.22l-4.45-2.21-1.47,3,4.44,2.21A1.65,1.65,0,0,0,335.86,240.5Z"/><path class="cls-4" d="M143.36,201.36a135.06,135.06,0,0,0-7.2,20.67,311.54,311.54,0,0,1,53.61-4.64A307.77,307.77,0,0,1,396,296.34a134.32,134.32,0,0,0,4.8-21.39,326.88,326.88,0,0,0-211-76.87A332.05,332.05,0,0,0,143.36,201.36Zm8.38,15.14c-3.18.39-6.1-2.16-6.54-5.69s1.79-6.7,5-7.09,6.1,2.15,6.53,5.68S154.91,216.11,151.74,216.5Zm21.4-1.93-2.2.15c-.09-1.22-.25-3.43-1.56-4.68l-5.11.36.34,4.77-2.39.16-.71-12.85,7.34-.51a4,4,0,0,1,2.59,7.34C172.84,210.36,173,213.13,173.14,214.57Zm210.41,58.81c2.21-2.78,6-3.42,8.54-1.43s2.74,5.86.52,8.64-6,3.42-8.54,1.43S381.34,276.16,383.55,273.38Zm-14.89-7.85,2.36,1.68c-.75,1.05-.12,2.3,1.38,3.36s2.56,1.09,3,.42c1.52-2.14-6.44-5.78-3.73-9.5,2.33-3.19,5.89-.42,7.24.54s3.46,3.37,1.58,5.93l-2.28-1.63c.8-1.12.05-2.28-1.15-3.13s-2.12-1.23-2.89-.15c-1.29,1.74,6.49,5.54,3.85,9.25-1.95,2.73-5,1.33-7-.11C369.3,271,366.78,268.15,368.66,265.53Zm-9.89-4.16c1.55,1,2.61.95,3.05.25,1.41-2.21-6.73-5.43-4.22-9.28,2.16-3.31,5.86-.74,7.26.15s3.63,3.19,1.89,5.84l-2.36-1.51c.74-1.16-.08-2.28-1.32-3.07s-2.17-1.11-2.89,0c-1.2,1.8,6.78,5.19,4.33,9-1.8,2.83-4.94,1.59-7,.26-1.79-1.14-4.45-3.81-2.71-6.52l2.44,1.55C356.52,259.17,357.22,260.38,358.77,261.37ZM354.37,246l-1.18,2.08-7.68-4.34L344.24,246l6.4,3.62-1.08,1.92-6.4-3.62-1.63,2.88,8.16,4.62-1.18,2.08-10.08-5.71,6.34-11.2Zm-24.6-13.07,6.58,3.28a4,4,0,0,1-1.5,7.64c.68,1.62-.56,4.11-1.2,5.4l-2-1c.54-1.11,1.53-3.09,1-4.83l-4.59-2.28L326,245.44l-2.14-1.06Zm-18.28-1.09c1.41-3.26,4.94-4.87,7.87-3.6h0a5.86,5.86,0,0,1,3.29,6.05l-2.37-1a3.29,3.29,0,0,0-1.88-2.82c-1.72-.75-3.84.3-4.73,2.35s-.22,4.32,1.51,5.06a3.37,3.37,0,0,0,3.64-.82l-1.92-.83.73-1.69,2.28,1,.5.22,1.69.73-2.57,5.91-1.68-.74.69-1.59a5.49,5.49,0,0,1-4.32,0h0C311.3,238.78,310.07,235.1,311.49,231.85Zm-15.58-6c1.24-3.33,4.68-5.12,7.68-4s4.42,4.73,3.17,8.06-4.68,5.12-7.68,4S294.67,229.21,295.91,225.88Zm-13.76-11.23,7,2.22a4,4,0,0,1-.28,7.77c.92,1.49.08,4.15-.35,5.52l-2.1-.66c.37-1.17,1-3.29.27-4.93L281.82,223l-1.43,4.56-2.28-.72Zm-16.43-4.4,7.12,1.84a4,4,0,0,1-2,7.83l-5-1.29-1.2,4.63-2.31-.6Zm-25.88-3.81,9.28,1.6-.37,2.17L241.64,209l-.35,2,6,1-.37,2.18-6-1-.5,2.9,7.34,1.26-.37,2.17-9.52-1.63ZM212.33,202l3.2.28,1.8,9,3.33-8.57,3.21.28-1.12,12.82-2.2-.19.77-8.79L218,215.45l-2-.18-1.8-9-.76,8.79-2.2-.19Zm-17-.74,11,.39-.08,2.39-8.82-.31-.09,2.57,7.35.26-.08,2.2-7.35-.25-.11,3.31,9.37.32-.08,2.39-11.58-.4ZM190,208.6a5.51,5.51,0,0,1-5.42,5.61l-6.06.11-.23-12.87,6.07-.11a5.52,5.52,0,0,1,5.61,5.42Z"/><path class="cls-4" d="M299.92,231.7c1.76.65,3.82-.51,4.6-2.6s0-4.32-1.77-5-3.82.5-4.6,2.6S298.16,231,299.92,231.7Z"/><path class="cls-1" d="M150.17,203.72c-3.18.39-5.4,3.57-5,7.09s3.36,6.08,6.54,5.69,5.39-3.57,5-7.1S153.34,203.33,150.17,203.72Zm1.27,10.4c-1.86.23-3.59-1.38-3.86-3.6s1-4.2,2.88-4.43,3.6,1.39,3.87,3.6S153.31,213.89,151.44,214.12Z"/><path class="cls-1" d="M173.16,205.72a4,4,0,0,0-4.31-3.75l-7.34.51.71,12.85,2.39-.16-.34-4.77,5.11-.36c1.31,1.25,1.47,3.46,1.56,4.68l2.2-.15c-.1-1.44-.3-4.21-1.7-5.26A4,4,0,0,0,173.16,205.72Zm-4.1,1.95-4.95.34-.23-3.3,5-.34a1.65,1.65,0,1,1,.23,3.3Z"/><path class="cls-1" d="M184.38,201.34l-6.07.11.23,12.87,6.06-.11A5.51,5.51,0,0,0,190,208.6l0-1.84A5.52,5.52,0,0,0,184.38,201.34Zm0,10.49-3.5.06-.14-8.09,3.5-.06a3.49,3.49,0,0,1,3.55,3.43l0,1.1A3.5,3.5,0,0,1,184.38,211.83Z"/><polygon class="cls-1" points="206.54 212.17 197.17 211.84 197.28 208.54 204.63 208.79 204.71 206.59 197.36 206.33 197.45 203.76 206.27 204.07 206.35 201.68 195.33 201.29 194.88 214.16 206.46 214.56 206.54 212.17"/><polygon class="cls-1" points="214.17 206.25 215.97 215.27 217.98 215.44 221.32 206.88 220.55 215.67 222.75 215.86 223.87 203.04 220.66 202.76 217.33 211.33 215.53 202.31 212.33 202.03 211.21 214.85 213.41 215.04 214.17 206.25"/><polygon class="cls-1" points="247.76 217.32 240.42 216.06 240.92 213.16 246.9 214.19 247.28 212.01 241.29 210.99 241.64 208.99 248.75 210.21 249.12 208.04 239.84 206.44 237.88 217.86 247.39 219.5 247.76 217.32"/><path class="cls-1" d="M265.83,218.63l5,1.29a4,4,0,0,0,2-7.83l-7.12-1.84-3.4,12.41,2.31.6Zm1.42-5.52,4.81,1.25a1.65,1.65,0,1,1-.83,3.2l-4.8-1.24Z"/><path class="cls-1" d="M281.82,223l4.89,1.54c.76,1.64.1,3.76-.27,4.93l2.1.66c.43-1.37,1.27-4,.35-5.52a4,4,0,0,0,.28-7.77l-7-2.22-4,12.22,2.28.72Zm1.72-5.43,4.73,1.49a1.66,1.66,0,0,1-1,3.16l-4.74-1.5Z"/><path class="cls-1" d="M299.08,233.94c3,1.12,6.44-.68,7.68-4s-.17-6.94-3.17-8.06-6.44.67-7.68,4S296.09,232.81,299.08,233.94Zm-.93-7.22c.78-2.1,2.84-3.26,4.6-2.6s2.55,2.89,1.77,5-2.84,3.25-4.6,2.6S297.37,228.81,298.15,226.72Z"/><path class="cls-1" d="M314.23,240.06h0a5.49,5.49,0,0,0,4.32,0l-.69,1.59,1.68.74,2.57-5.91-1.69-.73-.5-.22-2.28-1-.73,1.69,1.92.83a3.37,3.37,0,0,1-3.64.82c-1.73-.74-2.4-3-1.51-5.06s3-3.1,4.73-2.35a3.29,3.29,0,0,1,1.88,2.82l2.37,1a5.86,5.86,0,0,0-3.29-6.05h0c-2.93-1.27-6.46.34-7.87,3.6S311.3,238.78,314.23,240.06Z"/><path class="cls-1" d="M328.13,241.17l4.59,2.28c.49,1.74-.5,3.72-1,4.83l2,1c.64-1.29,1.88-3.78,1.2-5.4a4,4,0,0,0,1.5-7.64l-6.58-3.28-5.91,11.44,2.14,1.06Zm2.54-5.1,4.45,2.21a1.65,1.65,0,1,1-1.48,3L329.2,239Z"/><polygon class="cls-1" points="348.51 257.49 349.69 255.41 341.53 250.79 343.16 247.91 349.56 251.53 350.64 249.61 344.24 245.99 345.51 243.75 353.19 248.09 354.37 246.01 344.77 240.58 338.43 251.78 348.51 257.49"/><path class="cls-1" d="M354.77,256.53c-1.74,2.71.92,5.38,2.71,6.52,2.09,1.33,5.23,2.57,7-.26,2.45-3.84-5.53-7.23-4.33-9,.72-1.12,1.69-.77,2.89,0s2.06,1.91,1.32,3.07l2.36,1.51c1.74-2.65-.5-4.95-1.89-5.84s-5.1-3.46-7.26-.15c-2.51,3.85,5.63,7.07,4.22,9.28-.44.7-1.5.73-3.05-.25s-2.25-2.2-1.56-3.29Z"/><path class="cls-1" d="M371,272.19c2,1.44,5.09,2.84,7,.11,2.64-3.71-5.14-7.51-3.85-9.25.77-1.08,1.73-.68,2.89.15s1.95,2,1.15,3.13l2.28,1.63c1.88-2.56-.24-5-1.58-5.93s-4.91-3.73-7.24-.54c-2.71,3.72,5.25,7.36,3.73,9.5-.48.67-1.54.65-3-.42s-2.13-2.31-1.38-3.36l-2.36-1.68C366.78,268.15,369.3,271,371,272.19Z"/><path class="cls-1" d="M384.07,282c2.51,2,6.33,1.35,8.54-1.43s2-6.65-.52-8.64-6.33-1.35-8.54,1.43S381.57,280,384.07,282Zm1.35-7.15c1.39-1.75,3.71-2.22,5.18-1.05s1.53,3.53.14,5.28-3.71,2.22-5.18,1S384,276.62,385.42,274.87Z"/><polygon class="cls-4" points="157.98 229.94 156.68 225.94 155.38 229.94 151.17 229.94 154.57 232.41 153.27 236.41 156.68 233.94 160.08 236.41 158.78 232.41 162.19 229.94 157.98 229.94"/><polygon class="cls-4" points="169.93 286.75 168.63 282.75 167.33 286.75 163.12 286.75 166.52 289.23 165.22 293.23 168.63 290.76 172.03 293.23 170.73 289.23 174.14 286.75 169.93 286.75"/><polygon class="cls-4" points="153.16 299.19 152.08 295.85 151 299.19 147.49 299.19 150.33 301.25 149.24 304.59 152.08 302.52 154.92 304.59 153.83 301.25 156.67 299.19 153.16 299.19"/><polygon class="cls-4" points="182.49 279.42 181.87 277.51 181.25 279.42 179.24 279.42 180.87 280.6 180.25 282.5 181.87 281.32 183.49 282.5 182.87 280.6 184.49 279.42 182.49 279.42"/><polygon class="cls-4" points="193.92 305.87 196.76 303.81 199.6 305.87 198.51 302.54 201.35 300.48 197.84 300.48 196.76 297.14 195.68 300.48 192.17 300.48 195.01 302.54 193.92 305.87"/><polygon class="cls-4" points="191.31 315.85 190.45 318.51 192.72 316.87 194.99 318.51 194.12 315.85 196.39 314.2 193.58 314.2 192.72 311.53 191.85 314.2 189.04 314.2 191.31 315.85"/><polygon class="cls-4" points="310.22 212.29 308.92 208.28 307.62 212.29 303.41 212.29 306.82 214.76 305.52 218.76 308.92 216.29 312.33 218.76 311.03 214.76 314.43 212.29 310.22 212.29"/><polygon class="cls-4" points="358.29 308.13 361.69 305.65 365.1 308.13 363.8 304.12 367.2 301.65 362.99 301.65 361.69 297.65 360.39 301.65 356.19 301.65 359.59 304.12 358.29 308.13"/><polygon class="cls-4" points="378.18 307.85 380.45 306.2 382.72 307.85 381.85 305.18 384.12 303.53 381.32 303.53 380.45 300.87 379.58 303.53 376.78 303.53 379.05 305.18 378.18 307.85"/><polygon class="cls-4" points="362.62 313.9 365.46 315.96 364.37 319.3 367.21 317.23 370.05 319.3 368.96 315.96 371.8 313.9 368.29 313.9 367.21 310.56 366.13 313.9 362.62 313.9"/><polygon class="cls-4" points="331.83 347.61 334.67 345.55 337.5 347.61 336.42 344.28 339.25 342.21 335.75 342.21 334.67 338.88 333.58 342.21 330.07 342.21 332.91 344.28 331.83 347.61"/><polygon class="cls-4" points="335.35 356.12 334.48 353.45 333.61 356.12 330.81 356.12 333.08 357.77 332.21 360.44 334.48 358.79 336.75 360.44 335.88 357.77 338.15 356.12 335.35 356.12"/><polygon class="cls-4" points="345.82 336.17 348.09 334.52 350.36 336.17 349.49 333.5 351.76 331.85 348.95 331.85 348.09 329.18 347.22 331.85 344.42 331.85 346.69 333.5 345.82 336.17"/><polygon class="cls-4" points="356.1 330.14 358.94 328.08 361.77 330.14 360.69 326.81 363.53 324.75 360.02 324.75 358.94 321.41 357.85 324.75 354.35 324.75 357.18 326.81 356.1 330.14"/><polygon class="cls-4" points="331.84 333.59 334.11 331.94 336.38 333.59 335.52 330.92 337.79 329.27 334.98 329.27 334.11 326.61 333.25 329.27 330.44 329.27 332.71 330.92 331.84 333.59"/><polygon class="cls-4" points="212.68 265.42 215.52 263.36 218.35 265.42 217.27 262.09 220.11 260.02 216.6 260.02 215.52 256.69 214.43 260.02 210.93 260.02 213.76 262.09 212.68 265.42"/><polygon class="cls-4" points="301.5 252.32 303.77 250.67 306.04 252.32 305.18 249.65 307.45 248 304.64 248 303.77 245.34 302.91 248 300.1 248 302.37 249.65 301.5 252.32"/><polygon class="cls-4" points="268.3 314.89 267 310.89 265.7 314.89 261.49 314.89 264.9 317.36 263.6 321.36 267 318.89 270.4 321.36 269.1 317.36 272.51 314.89 268.3 314.89"/><polygon class="cls-4" points="279.79 293.74 282.63 291.68 285.47 293.74 284.38 290.4 287.22 288.34 283.71 288.34 282.63 285.01 281.55 288.34 278.04 288.34 280.88 290.4 279.79 293.74"/><polygon class="cls-4" points="264.16 281.6 267 279.54 269.84 281.6 268.75 278.27 271.59 276.2 268.08 276.2 267 272.87 265.92 276.2 262.41 276.2 265.25 278.27 264.16 281.6"/><polygon class="cls-4" points="251.12 292.96 253.39 291.31 255.66 292.96 254.8 290.29 257.07 288.64 254.26 288.64 253.39 285.97 252.53 288.64 249.72 288.64 251.99 290.29 251.12 292.96"/><polygon class="cls-4" points="258.58 301.44 260.2 300.26 261.82 301.44 261.2 299.54 262.82 298.36 260.82 298.36 260.2 296.45 259.58 298.36 257.57 298.36 259.19 299.54 258.58 301.44"/><polygon class="cls-4" points="302.86 345.52 305.7 347.59 304.62 350.92 307.45 348.86 310.29 350.92 309.2 347.59 312.04 345.52 308.54 345.52 307.45 342.19 306.37 345.52 302.86 345.52"/><polygon class="cls-4" points="316.77 338.19 319.04 336.54 321.31 338.19 320.44 335.52 322.71 333.87 319.9 333.87 319.04 331.2 318.17 333.87 315.36 333.87 317.63 335.52 316.77 338.19"/><polygon class="cls-4" points="294.52 334.88 296.79 333.23 299.06 334.88 298.19 332.21 300.46 330.56 297.65 330.56 296.79 327.89 295.92 330.56 293.12 330.56 295.38 332.21 294.52 334.88"/><polygon class="cls-4" points="209.35 332.4 212.76 329.92 216.16 332.4 214.86 328.39 218.27 325.92 214.06 325.92 212.76 321.92 211.46 325.92 207.25 325.92 210.65 328.39 209.35 332.4"/><polygon class="cls-4" points="267.43 361.13 267 359.8 266.57 361.13 265.16 361.13 266.3 361.95 265.87 363.29 267 362.46 268.13 363.29 267.7 361.95 268.84 361.13 267.43 361.13"/></g></g></svg>